<?xml version="1.0" standalone="no"?>
<!DOCTYPE svg PUBLIC "-//W3C//DTD SVG 20010904//EN"
 "http://www.w3.org/TR/2001/REC-SVG-20010904/DTD/svg10.dtd">
<svg version="1.0" xmlns="http://www.w3.org/2000/svg"
 width="507.000000pt" height="507.000000pt" viewBox="0 0 507.000000 507.000000"
 preserveAspectRatio="xMidYMid meet">
<metadata>
Created by potrace 1.14, written by Peter Selinger 2001-2017
</metadata>
<g transform="translate(0.000000,507.000000) scale(0.100000,-0.100000)"
fill="#000000" stroke="none">
<path d="M2313 5020 c-760 -74 -1434 -482 -1863 -1127 -224 -336 -355 -708
-401 -1133 -17 -152 -6 -484 20 -635 91 -527 311 -973 659 -1336 516 -539
1223 -816 1964 -769 390 25 691 106 1008 272 693 362 1182 1037 1321 1823 27
153 37 493 20 657 -44 408 -187 811 -405 1137 -102 152 -180 247 -320 386
-378 376 -879 625 -1419 706 -152 22 -447 32 -584 19z"/>
</g>
</svg>
