
<svg class="stroke-gray-700" width="40px" height="40px" viewBox="0 0 70 60" version="1.1" xmlns="http://www.w3.org/2000/svg" xmlns:xlink="http://www.w3.org/1999/xlink">
    <g id="Page-2" stroke="none" stroke-width="444" fill="none" fill-rule="evenodd">
        <path d="M62.602.969c2.382 0 4.101 1.758 4.101 4.023 0 1.021-.374 1.906-1.186 2.845l-.181.202L47.328 26.75 67.25 50.813c1.094 1.328 1.563 2.539 1.563 3.632 0 2.383-1.836 4.22-4.22 4.22-1.64 0-2.747-.57-3.999-2.05l-.18-.217-19.453-23.632-5.867 6.285v2.23c0 11.047-6.416 17.51-17.171 17.654l-.368.002c-7.696 0-13.79-3.789-16.094-9.921-.508-1.407-.82-2.54-.82-4.102 0-2.656 1.601-4.297 4.101-4.297 2.227 0 3.555 1.133 4.258 3.711 1.21 4.375 4.219 6.797 8.477 6.797 5.018 0 8.037-2.655 8.719-7.6V5.538c0-2.812 1.64-4.531 4.374-4.531h.149c2.618 0 4.278 1.622 4.37 4.293l.005.238v22.656h.203l23.71-25.43C60.18 1.478 61.235.97 62.603.97Z" fill="#FFF" fill-rule="evenodd"/>
    </g>
</svg>