
<svg width="40px" height="40px" viewBox="0 0 40 40" version="1.1" xmlns="http://www.w3.org/2000/svg" xmlns:xlink="http://www.w3.org/1999/xlink">
    <g id="linkedin" stroke="none" fill="none" fill-rule="evenodd">
        <rect id="Rectangle" stroke="currentColor" x="1.5" y="1.5" width="37" height="37" rx="8"></rect>
        <g id="in" transform="translate(8.000000, 8.000000)" fill="currentColor" fill-rule="nonzero">
            <path d="M2.08257878,3.84631009 C3.24882289,3.84631009 4.18181818,2.97427217 4.18181818,1.91536899 C4.18181818,0.840893703 3.24882289,0 2.08257878,0 C0.932995292,0 0,0.840893703 0,1.91536899 C0,2.97427217 0.932995292,3.84631009 2.08257878,3.84631009 Z M2.08257878,23 C3.16551974,23 3.88192684,22.2992552 3.88192684,21.22478 L3.88192684,7.81719702 C3.88192684,6.72714963 3.16551974,6.02640487 2.08257878,6.02640487 C0.999637812,6.02640487 0.283230714,6.72714963 0.283230714,7.81719702 L0.283230714,21.22478 C0.283230714,22.2992552 0.999637812,23 2.08257878,23 Z" id="i"></path>
            <path d="M9.1854766,23 C10.2747319,23 11.0527714,22.3086938 11.0527714,21.1672346 L11.0527714,12.8394059 C11.0527714,10.2188729 12.7471685,8.48256881 15.375213,8.48256881 C17.968678,8.48256881 19.2481207,9.88125819 19.2481207,12.4214067 L19.2481207,21.1672346 C19.2481207,22.3086938 20.0261602,23 21.1154155,23 C22.2219605,23 23,22.3086938 23,21.1672346 L23,11.7461774 C23,7.87164701 20.7004611,5.49226737 16.6892352,5.49226737 C13.8882931,5.49226737 11.9864188,6.64980341 11.0009021,8.57903014 L10.9144532,8.57903014 L10.9144532,7.24464832 C10.9144532,6.16749672 10.1709933,5.47619048 9.09902776,5.47619048 C8.00977248,5.47619048 7.31818182,6.16749672 7.31818182,7.22857143 L7.31818182,21.1672346 C7.31818182,22.3086938 8.07893154,23 9.1854766,23 Z" id="n"></path>
        </g>
    </g>
</svg>