
<svg width="30px" height="30px" viewBox="0 0 30 30" version="1.1" xmlns="http://www.w3.org/2000/svg" xmlns:xlink="http://www.w3.org/1999/xlink">
    <g id="Page-4" stroke="none" stroke-width="1" fill="none" fill-rule="evenodd">
        <path d="M31.8007812,0.484375 C32.9921875,0.484375 33.8515625,1.36328125 33.8515625,2.49609375 C33.8515625,2.98220486 33.6818094,3.40658758 33.3148684,3.85154642 L33.1679688,4.01953125 L24.1640625,13.375 L34.125,25.40625 C34.671875,26.0703125 34.90625,26.6757812 34.90625,27.2226562 C34.90625,28.4140625 33.9882812,29.3320312 32.796875,29.3320312 C31.9988839,29.3320312 31.4535037,29.0625797 30.847978,28.3672985 L30.7070312,28.1992188 L20.9804688,16.3828125 L18.0463125,19.526375 L18.046875,20.640625 C18.046875,26.1268136 14.8817662,29.3522102 9.56924138,29.4656535 L9.27734375,29.46875 C5.4296875,29.46875 2.3828125,27.5742188 1.23046875,24.5078125 C0.9765625,23.8046875 0.8203125,23.2382812 0.8203125,22.4570312 C0.8203125,21.1289062 1.62109375,20.3085938 2.87109375,20.3085938 C3.984375,20.3085938 4.6484375,20.875 5,22.1640625 C5.60546875,24.3515625 7.109375,25.5625 9.23828125,25.5625 C11.7491365,25.5625 13.2591776,24.2330602 13.5985816,21.7570669 L13.5976562,2.76953125 C13.5976562,1.36328125 14.4179688,0.50390625 15.7851562,0.50390625 L15.859375,0.50390625 C17.1484375,0.50390625 17.9728852,1.29017752 18.0421395,2.58923439 L18.046875,2.76953125 L18.0463125,14.097375 L18.1484375,14.0976562 L30.0039062,1.3828125 C30.5898438,0.73828125 31.1171875,0.484375 31.8007812,0.484375 Z" id="Combined-Shape" fill="#000000"></path>
    </g>
</svg>