
<svg width="50px" height="50px" viewBox="0 -1 50 49" version="1.1" xmlns="http://www.w3.org/2000/svg" xmlns:xlink="http://www.w3.org/1999/xlink">
    <g id="github" stroke="none" fill="none" fill-rule="evenodd">
        <path d="M22.5,1 C28.4369191,1 33.8117344,3.40949786 37.7023568,7.30495612 C41.5934284,11.2008643 44,16.5830406 44,22.5279666 C44,28.458415 41.5710223,33.8147996 37.6634635,37.6940056 C33.7364177,41.5925573 28.3160843,44 22.3637206,44 C16.4342871,44 11.0976909,41.6099376 7.24164373,37.7352147 C3.37687148,33.8517245 1,28.4780184 1,22.5279666 C1,16.5830406 3.40657157,11.2008643 7.29764325,7.30495612 C11.1882656,3.40949786 16.5630809,1 22.5,1 Z" id="Oval" stroke="currentColor"></path>
        <path d="M24.9808404,43.7138572 C31.8379424,42.9278817 33.3892764,41.2629186 29.6348423,38.7189677 L27.8973845,36.0713824 C27.065076,33.2785303 27.065076,31.7196515 27.8973845,31.3947458 C29.1458473,30.9073873 34.6447479,30.3308221 36.1163338,26.6330789 C37.5879197,22.9353357 37.2678682,23.3005968 37.0945335,19.9494302 C36.9211988,16.5982637 35.3386906,16.2837573 34.7443325,15.3925834 C34.1499744,14.5014094 34.9350191,13.5203264 34.5424867,11.5770503 C34.1499542,9.63377417 35.1883991,8.89775221 31.3047237,10.3876839 C27.4210484,11.8776157 29.0284893,12.3230336 27.0788238,11.9655024 C23.770224,11.3587687 19.4069849,11.6628869 18.391996,12.5034716 C18.191216,12.6697518 17.9813485,12.5249532 17.8194511,12.3996326 L17.8069338,12.3899126 C17.7758883,12.36574 17.7467195,12.3426325 17.7198491,12.3230336 C16.4746292,11.4147884 14.7180393,10.7630339 12.7131624,9.90965386 C10.7082855,9.0562738 11.0638956,10.78711 11.0638956,11.5770503 C11.0638956,12.3669905 10.9064478,13.5996545 11.0638956,15.0993424 C11.0808807,15.261125 11.123071,15.5448091 10.9064478,15.776017 C9.40949106,17.3737603 8.64105735,20.1481302 8.3169257,21.8128104 C7.99279404,23.4774907 8.79736714,25.5909248 11.5476733,28.4988592 C14.2979794,31.4067937 18.0077219,29.9624431 18.5632204,31.3947458 C19.1187189,32.8270485 17.3808346,35.8306588 14.4102657,34.2403877 C11.4396968,32.6501167 12.576284,33.4651345 10.3642475,31.8322029 C8.90403925,30.754273 7.43413483,32.1710056 8.97491461,33.777033 C11.2860843,36.1860742 11.0867378,36.1308253 13.7738586,37.1607581 C16.4609794,38.1906909 16.9437558,38.3999356 16.9437558,40.1479099 C16.9437558,40.8841714 16.8963461,41.2870729 16.8015266,41.3566143 C16.2240853,42.5344504 16.3935885,42.3548371 15.8484771,42.7052205 C15.5038232,42.926755 17.9392752,43.2705743 23.1548329,43.7366783 L23.154833,43.7366769 C23.7627015,43.7910009 24.3745193,43.783355 24.9808404,43.7138572 Z" id="Path" stroke="currentColor" stroke-width="2" fill="currentColor"></path>
    </g>
</svg>